<svg width="44" height="44" viewBox="0 0 44 44" fill="none" xmlns="http://www.w3.org/2000/svg">
<g clip-path="url(#clip0_1844_4894)">
<g clip-path="url(#clip1_1844_4894)">
<path d="M0 8C0 3.58172 3.58172 0 8 0H36C40.4183 0 44 3.58172 44 8V36C44 40.4183 40.4183 44 36 44H8C3.58172 44 0 40.4183 0 36V8Z" fill="#E5F1FE"/>
<rect width="44" height="44" fill="#E5F1FE"/>
<path d="M35.5498 31.3114C35.79 31.6715 35.8141 32.0541 35.6219 32.4592C35.3816 32.8194 35.0453 32.9994 34.6128 32.9994H9.38716C8.90667 32.9994 8.57033 32.7969 8.37813 32.3917C8.18593 32.0316 8.20996 31.6715 8.4502 31.3114L13.4953 24.8292C13.7356 24.5141 14.0479 24.3566 14.4323 24.3566C14.8167 24.3566 15.129 24.5141 15.3692 24.8292L17.6756 27.8002L24.4505 18.4146C24.6907 18.0545 25.0031 17.8744 25.3874 17.8744C25.7718 17.8744 26.0842 18.032 26.3244 18.3471L35.5498 31.3114Z" fill="#338DF6"/>
<path d="M14.1654 12.1034C14.9006 11.4207 15.7934 11.0531 16.8438 11.0006C17.8941 11.0531 18.7869 11.4207 19.5221 12.1034C20.2574 12.8387 20.625 13.7315 20.625 14.7818C20.625 15.8322 20.2574 16.725 19.5221 17.4602C18.8394 18.1429 17.9466 18.5106 16.8438 18.5631C15.7409 18.5106 14.8481 18.1429 14.1654 17.4602C13.4826 16.725 13.115 15.8322 13.0625 14.7818C13.115 13.7315 13.4826 12.8387 14.1654 12.1034Z" fill="#99C6FB"/>
</g>
</g>
<defs>
<clipPath id="clip0_1844_4894">
<rect width="44" height="44" fill="white"/>
</clipPath>
<clipPath id="clip1_1844_4894">
<path d="M0 8C0 3.58172 3.58172 0 8 0H36C40.4183 0 44 3.58172 44 8V36C44 40.4183 40.4183 44 36 44H8C3.58172 44 0 40.4183 0 36V8Z" fill="white"/>
</clipPath>
</defs>
</svg>
